#!OML:ASF F:\VICON\USERDATA\INSTALL\rory3\rory3.ASF
:FULLY-SPECIFIED
:DEGREES
111
root 1.2189438167411895 17.8603984962277 51.27307460749349 -3.6619881816270063 -0.20436495521364773 2.797757151032372
lfemur 6.440562655617105 -5.265870582166712 -27.708128401210114
ltibia 21.679476218605778
lfoot -5.429131614513931 -5.1856176996533945
ltoes -4.594670575084829
rfemur -21.22970014760498 0.08471438960698618 19.420276194833665
rtibia 55.73797806449197
rfoot -9.989936728204631 -3.7507648525672836
rtoes 4.565166255409581
lowerback -1.0 -1.464515131259023 -3.0369948833019067
upperback 0.06944076501433075 -1.9576870073719235 0.8638971008926687
thorax -5.095118731665205 -0.9476148323407618 2.380042930411557
lowerneck -16.568770748938558 -3.0526383791971874 -1.5872231092427502
upperneck 21.254392275674153 -3.9295332198696156 1.2089788717356638
head 9.587831312713742 -1.8791489904735528 0.2171910374472824
lclavicle 2.973651269598538e-16 -8.773425154858737e-16
lhumerus -30.103177249181968 2.7409792020301396 80.44417650417331
lradius 26.173448300858453
lwrist 7.642403686466361
lhand -28.320327770571375 19.5495646132953
lfingers nan
lthumb -1.7573676871694692 49.64217247517199
rclavicle 3.951812891428125e-16 -7.972087316527557e-16
rhumerus -28.116843118090326 -15.819581807684571 -79.59395819322233
rradius 32.534147447658825
rwrist 0.9400449352561902
rhand -17.455692686516716 -1.0
rfingers nan
rthumb 8.887701917485591 -7.325124406922851
112
root 1.2695328108585535 17.86523870823178 52.35602075699997 -3.417809081008007 -0.5220383190246833 2.9042372427281826
lfemur 8.049366945940882 -5.21967835028497 -27.647598188532935
ltibia 23.132263175912126
lfoot -5.200098883268282 -4.973691018026681
ltoes -4.987306862032664
rfemur -21.879141561233702 0.28895220953252787 19.64786639926831
rtibia 52.665849709789185
rfoot -10.591853294010505 -3.380977405356818
rtoes 3.3304350182522695
lowerback -1.0 -1.682063373606551 -3.1673890522086245
upperback 0.03847728878898801 -2.2463218630712687 0.9930368338364894
thorax -5.042499254138548 -1.1009878235646555 2.634968101974997
lowerneck -16.578978203284063 -2.9784340011185026 -1.6711176488226993
upperneck 21.435439577811234 -3.7911701866663434 1.0816130833961202
head 9.633846260070712 -1.8274825020708043 0.21563521374550332
lclavicle 2.903817529682817e-16 -8.810791508093369e-16
lhumerus -29.410704177930345 2.1662634552776763 80.33160874420626
lradius 26.342568759285964
lwrist 7.1844707510905526
lhand -28.246335647645488 19.739501096983776
lfingers nan
lthumb -1.6325171805360488 49.935477754033954
rclavicle 3.907536206440549e-16 -7.972508082079935e-16
rhumerus -28.72275750031047 -16.30664270106702 -79.80722798728769
rradius 32.439074916004785
rwrist 0.7565524512231474
rhand -17.443401058092945 -1.0
rfingers nan
rthumb 8.883692089918434 -7.3116819356271225
113
root 1.3044613725894183 17.869335402237834 52.49621086175763 -3.233067256917363 -0.9626144068043507 2.5946986778065178
lfemur 9.315230534205241 -5.00110416618754 -27.104696782793837
ltibia 24.790866351317685
lfoot -4.7931553234932185 -4.4027848926249495
ltoes -5.134993597541167
rfemur -22.252211837340113 0.5526274595115308 20.36813853561332
rtibia 49.076628881219506
rfoot -11.208198978973194 -3.157700156696469
rtoes 2.2661728126740277
lowerback -1.0 -1.8509751231531415 -3.0181368595632576
upperback -0.0007909665244455188 -2.455763868035332 1.1576293100139727
thorax -4.986656922885458 -1.211967975438032 2.830481665438341
lowerneck -16.565726567790637 -2.9116924780948095 -1.7673570832952485
upperneck 21.63690198186889 -3.66290498493223 0.9458348759321316
head 9.682929883374184 -1.7801031552239417 0.20881262127616917
lclavicle 2.8451451751063763e-16 -8.842919616944382e-16
lhumerus -28.786955215190844 1.6402887673135522 80.20391465267844
lradius 26.457847953825514
lwrist 6.834330225086992
lhand -28.306883823503785 19.713599207929573
lfingers nan
lthumb -1.6567148809942016 49.9629697272925
rclavicle 3.8785684522610265e-16 -7.968298416036615e-16
rhumerus -29.32760643218393 -16.863282982867325 -79.8962772985392
rradius 32.399302923579896
rwrist 0.7230224765237385
rhand -17.425602289025182 -1.0
rfingers nan
rthumb 8.917271083487144 -7.211932234425187
114
root 1.3452072134397137 17.8755382079476 53.019699293718084 -3.1161145077854333 -1.4051220721471656 2.1926303296158913
lfemur 10.083495782036305 -4.637703594613832 -26.319836267544247
ltibia 26.743727790320726
lfoot -4.302160153994046 -4.252997678852844
ltoes -5.00800403942325
rfemur -22.34817420743358 0.8778745411157018 21.23753753896501
rtibia 45.29208359883182
rfoot -11.906013920472152 -3.162468294786482
rtoes 1.2858531001864357
lowerback -1.0 -1.9639359242117433 -2.7594274028073786
upperback -0.04129483285967073 -2.5888961487850404 1.318594449051672
thorax -4.940593583759583 -1.286147386744372 2.9640227894944573
lowerneck -16.541928808173214 -2.8586878418109243 -1.862815835078501
upperneck 21.818270569207762 -3.5579958928939823 0.8113073901435357
head 9.725507044161134 -1.7424446700662848 0.19400830687968823
lclavicle 2.799514472689662e-16 -8.868650028602555e-16
lhumerus -28.279654696677454 1.2307695684296247 80.06603562671982
lradius 26.542276826850344
lwrist 6.606236837446857
lhand -28.235985309844366 19.99438923019507
lfingers nan
lthumb -1.5487948876007385 50.29995047087405
rclavicle 3.865484217087949e-16 -7.959547101173742e-16
rhumerus -29.92427689985986 -17.4826847801372 -79.84628484590837
rradius 32.41052154730764
rwrist 0.8967963005595192
rhand -17.417608686911574 -1.0
rfingers nan
rthumb 8.932844077984333 -7.1484850317307345
115
root 1.384381864693066 17.88280315146905 53.155540400523485 -3.0496246043124025 -1.906857673816702 1.3910651312584814
lfemur 10.241614774768234 -4.12156475792906 -25.03511593825678
ltibia 29.154990242252282
lfoot -4.08356815495679 -4.138723001722877
ltoes -5.155391596292345
rfemur -22.34623671870398 1.2885484685649264 22.480065742219875
rtibia 41.607290098298016
rfoot -12.605668495496221 -3.5731652929870656
rtoes 0.28582951724031647
lowerback -1.0 -2.0062385497454205 -2.2124379286943765
upperback -0.08116921946460101 -2.5946586736071984 1.4975192524230676
thorax -4.917824093088843 -1.295865219844769 3.0340671708648186
lowerneck -16.518982045197113 -2.824162869574054 -1.933078139552258
upperneck 21.939421175044554 -3.4865533511404343 0.6865281839766577
head 9.750526319329913 -1.7185581788881663 0.16968802041799114
lclavicle 2.7688886295226644e-16 -8.88669432477371e-16
lhumerus -27.89536820789093 1.0160790635323957 79.937485307792
lradius 26.59455519287223
lwrist 6.49198448203012
lhand -28.24513383023899 20.090836321790338
lfingers nan
lthumb -1.5792187192971059 50.31080856742509
rclavicle 3.8647625796262773e-16 -7.948706920474036e-16
rhumerus -30.508151644554644 -18.163254928007262 -79.64949686836731
rradius 32.47349868511282
rwrist 1.1858361439587264
rhand -17.40305741710373 -1.0
rfingers nan
rthumb 8.965712527123765 -7.060402795644334
